<svg width="25" height="29" viewBox="0 0 25 29" fill="none" xmlns="http://www.w3.org/2000/svg">
<path d="M24.1071 1.78572H17.4107L16.8862 0.742197C16.775 0.519102 16.6039 0.33144 16.3919 0.200321C16.18 0.069203 15.9356 -0.000168971 15.6864 9.78388e-06H9.30804C9.05936 -0.000946161 8.81545 0.0681672 8.60424 0.199431C8.39304 0.330696 8.22308 0.518801 8.11384 0.742197L7.58929 1.78572H0.892857C0.656057 1.78572 0.428955 1.87979 0.261512 2.04724C0.0940686 2.21468 0 2.44178 0 2.67858L0 4.4643C0 4.7011 0.0940686 4.9282 0.261512 5.09564C0.428955 5.26308 0.656057 5.35715 0.892857 5.35715H24.1071C24.3439 5.35715 24.571 5.26308 24.7385 5.09564C24.9059 4.9282 25 4.7011 25 4.4643V2.67858C25 2.44178 24.9059 2.21468 24.7385 2.04724C24.571 1.87979 24.3439 1.78572 24.1071 1.78572ZM2.96875 26.0603C3.01134 26.7403 3.31147 27.3785 3.80807 27.8451C4.30466 28.3116 4.96038 28.5714 5.64174 28.5714H19.3583C20.0396 28.5714 20.6953 28.3116 21.1919 27.8451C21.6885 27.3785 21.9887 26.7403 22.0312 26.0603L23.2143 7.14287H1.78571L2.96875 26.0603Z" fill="black"/>
</svg>
